<svg xmlns="http://www.w3.org/2000/svg" xmlns:xlink="http://www.w3.org/1999/xlink" width="1024" zoomAndPan="magnify" viewBox="0 0 768 767.999994" height="1024" preserveAspectRatio="xMidYMid meet" version="1.0"><defs><g/><clipPath id="e60fc2ad7f"><path d="M 488.832031 318.679688 L 536.433594 318.679688 L 536.433594 342.480469 L 488.832031 342.480469 Z M 488.832031 318.679688 " clipRule="nonzero"/></clipPath></defs><g fill="#23221f" fill-opacity="1"><g transform="translate(147.954634, 428.639485)"><g><path d="M 25.46875 0 L 8.171875 0 L 8.171875 -91.65625 L 47.6875 -91.65625 C 53.457031 -91.65625 58.523438 -90.710938 62.890625 -88.828125 C 67.253906 -86.953125 70.65625 -84.03125 73.09375 -80.0625 C 75.539062 -76.09375 76.765625 -70.945312 76.765625 -64.625 C 76.765625 -58.78125 75.539062 -53.753906 73.09375 -49.546875 C 70.65625 -45.347656 67.253906 -42.144531 62.890625 -39.9375 C 58.523438 -37.738281 53.457031 -36.640625 47.6875 -36.640625 L 25.46875 -36.640625 Z M 25.46875 -76.15625 L 25.46875 -51.78125 L 45.28125 -51.78125 C 49.925781 -51.78125 53.46875 -52.816406 55.90625 -54.890625 C 58.351562 -56.972656 59.578125 -60.019531 59.578125 -64.03125 C 59.578125 -67.945312 58.335938 -70.945312 55.859375 -73.03125 C 53.378906 -75.113281 49.851562 -76.15625 45.28125 -76.15625 Z M 25.46875 -76.15625 "/></g></g></g><g fill="#23221f" fill-opacity="1"><g transform="translate(221.943358, 428.639485)"><g><path d="M 33.15625 0 L 22.703125 0 C 17.734375 0 13.890625 -1.160156 11.171875 -3.484375 C 8.453125 -5.804688 7.09375 -9.570312 7.09375 -14.78125 L 7.09375 -91.65625 L 23.296875 -91.65625 L 23.296875 -19.578125 C 23.296875 -17.335938 23.71875 -15.753906 24.5625 -14.828125 C 25.40625 -13.910156 26.828125 -13.453125 28.828125 -13.453125 L 33.15625 -13.453125 Z M 33.15625 0 "/></g></g></g><g fill="#23221f" fill-opacity="1"><g transform="translate(252.211007, 428.639485)"><g><path d="M 26.78125 1.328125 C 20.457031 1.328125 15.191406 -0.375 10.984375 -3.78125 C 6.785156 -7.1875 4.6875 -12.09375 4.6875 -18.5 C 4.6875 -22.101562 5.382812 -25.164062 6.78125 -27.6875 C 8.1875 -30.207031 10.050781 -32.269531 12.375 -33.875 C 14.53125 -35.394531 16.988281 -36.59375 19.75 -37.46875 C 22.519531 -38.351562 25.304688 -39.078125 28.109375 -39.640625 L 48.171875 -43.359375 C 48.015625 -47.523438 46.929688 -50.691406 44.921875 -52.859375 C 42.921875 -55.015625 39.921875 -56.09375 35.921875 -56.09375 C 32.878906 -56.09375 30.175781 -55.191406 27.8125 -53.390625 C 25.445312 -51.585938 23.941406 -49.085938 23.296875 -45.890625 L 7.203125 -45.890625 C 8.003906 -51.171875 9.847656 -55.492188 12.734375 -58.859375 C 15.617188 -62.222656 19.125 -64.722656 23.25 -66.359375 C 27.375 -68.003906 31.632812 -68.828125 36.03125 -68.828125 C 39.957031 -68.828125 43.722656 -68.265625 47.328125 -67.140625 C 50.929688 -66.023438 53.972656 -64.304688 56.453125 -61.984375 C 59.097656 -59.660156 60.976562 -56.992188 62.09375 -53.984375 C 63.21875 -50.984375 63.878906 -47.863281 64.078125 -44.625 C 64.285156 -41.382812 64.390625 -38.203125 64.390625 -35.078125 L 64.390625 0 L 48.171875 0 L 48.171875 -9.125 C 46.484375 -6.164062 44.441406 -3.925781 42.046875 -2.40625 C 39.960938 -1.039062 37.617188 -0.078125 35.015625 0.484375 C 32.410156 1.046875 29.664062 1.328125 26.78125 1.328125 Z M 30.75 -11.40625 C 33.957031 -11.40625 36.84375 -12.046875 39.40625 -13.328125 C 42.925781 -15.097656 45.304688 -17.460938 46.546875 -20.421875 C 47.785156 -23.378906 48.445312 -27.0625 48.53125 -31.46875 L 32.4375 -28.234375 C 30.113281 -27.828125 28.207031 -27.300781 26.71875 -26.65625 C 25.238281 -26.019531 24.019531 -25.265625 23.0625 -24.390625 C 22.425781 -23.742188 21.90625 -22.976562 21.5 -22.09375 C 21.101562 -21.21875 20.90625 -20.21875 20.90625 -19.09375 C 20.90625 -16.613281 21.84375 -14.710938 23.71875 -13.390625 C 25.601562 -12.066406 27.945312 -11.40625 30.75 -11.40625 Z M 30.75 -11.40625 "/></g></g></g><g fill="#23221f" fill-opacity="1"><g transform="translate(317.191274, 428.639485)"><g><path d="M 23.546875 0 L 7.328125 0 L 7.328125 -67.390625 L 23.546875 -67.390625 L 23.546875 -58.859375 C 26.265625 -62.617188 29.101562 -65.21875 32.0625 -66.65625 C 35.03125 -68.101562 38.316406 -68.828125 41.921875 -68.828125 C 48.085938 -68.828125 52.75 -67.722656 55.90625 -65.515625 C 59.070312 -63.316406 61.421875 -60.660156 62.953125 -57.546875 C 64.304688 -54.578125 65.101562 -51.550781 65.34375 -48.46875 C 65.582031 -45.382812 65.703125 -42.160156 65.703125 -38.796875 L 65.703125 0 L 49.609375 0 L 49.609375 -39.046875 C 49.609375 -42.484375 49.328125 -45.265625 48.765625 -47.390625 C 48.210938 -49.515625 47.375 -51.21875 46.25 -52.5 C 44.320312 -54.5 41.476562 -55.5 37.71875 -55.5 C 33.15625 -55.5 29.753906 -54.132812 27.515625 -51.40625 C 26.148438 -49.8125 25.144531 -47.691406 24.5 -45.046875 C 23.863281 -42.398438 23.546875 -38.835938 23.546875 -34.359375 Z M 23.546875 0 "/></g></g></g><g fill="#23221f" fill-opacity="1"><g transform="translate(383.853102, 428.639485)"><g><path d="M 37.71875 0 L 22.34375 0 L 1.796875 -67.390625 L 19.09375 -67.390625 L 30.625 -23.671875 L 43.484375 -67.390625 L 57.546875 -67.390625 L 70.390625 -23.90625 L 82.28125 -67.390625 L 99.46875 -67.390625 L 78.5625 0 L 63.3125 0 L 50.6875 -45.40625 Z M 37.71875 0 "/></g></g></g><g fill="#23221f" fill-opacity="1"><g transform="translate(479.221954, 428.639485)"><g><path d="M 23.546875 0 L 7.328125 0 L 7.328125 -67.390625 L 23.546875 -67.390625 Z M 23.546875 0 "/></g></g></g><g fill="#23221f" fill-opacity="1"><g transform="translate(504.204614, 428.639485)"><g><path d="M 23.546875 0 L 7.328125 0 L 7.328125 -67.390625 L 23.546875 -67.390625 L 23.546875 -59.34375 C 26.109375 -62.863281 28.96875 -65.320312 32.125 -66.71875 C 35.289062 -68.125 38.835938 -68.828125 42.765625 -68.828125 L 44.6875 -68.828125 L 44.6875 -53.21875 L 40.96875 -53.21875 C 38.238281 -53.21875 35.894531 -52.851562 33.9375 -52.125 C 31.976562 -51.40625 30.316406 -50.40625 28.953125 -49.125 C 27.191406 -47.363281 25.847656 -45.0625 24.921875 -42.21875 C 24.003906 -39.375 23.546875 -35.710938 23.546875 -31.234375 Z M 23.546875 0 "/></g></g></g><g fill="#23221f" fill-opacity="1"><g transform="translate(545.162291, 428.639485)"><g><path d="M 38.921875 1.328125 C 32.035156 1.328125 26.007812 -0.171875 20.84375 -3.171875 C 15.675781 -6.179688 11.671875 -10.285156 8.828125 -15.484375 C 5.984375 -20.691406 4.5625 -26.625 4.5625 -33.28125 C 4.5625 -37.675781 5.242188 -41.992188 6.609375 -46.234375 C 7.972656 -50.484375 10.054688 -54.3125 12.859375 -57.71875 C 15.660156 -61.125 19.179688 -63.828125 23.421875 -65.828125 C 27.671875 -67.828125 32.675781 -68.828125 38.4375 -68.828125 C 42.757812 -68.828125 46.941406 -68.144531 50.984375 -66.78125 C 55.035156 -65.425781 58.660156 -63.328125 61.859375 -60.484375 C 65.066406 -57.640625 67.609375 -54.015625 69.484375 -49.609375 C 71.367188 -45.203125 72.3125 -39.957031 72.3125 -33.875 L 72.3125 -30.390625 L 21.375 -30.390625 C 21.539062 -28.953125 21.863281 -27.53125 22.34375 -26.125 C 22.820312 -24.726562 23.34375 -23.507812 23.90625 -22.46875 C 25.507812 -19.34375 27.648438 -16.914062 30.328125 -15.1875 C 33.015625 -13.46875 36.078125 -12.609375 39.515625 -12.609375 C 43.359375 -12.609375 46.582031 -13.609375 49.1875 -15.609375 C 51.789062 -17.617188 53.613281 -19.984375 54.65625 -22.703125 L 71.234375 -22.703125 C 69.953125 -18.378906 67.910156 -14.394531 65.109375 -10.75 C 62.304688 -7.101562 58.742188 -4.175781 54.421875 -1.96875 C 50.097656 0.226562 44.929688 1.328125 38.921875 1.328125 Z M 22.109375 -42.53125 L 55.734375 -42.53125 C 55.660156 -43.40625 55.441406 -44.398438 55.078125 -45.515625 C 54.710938 -46.640625 54.09375 -47.722656 53.21875 -48.765625 C 51.695312 -51.171875 49.671875 -52.972656 47.140625 -54.171875 C 44.617188 -55.378906 41.878906 -55.984375 38.921875 -55.984375 C 35.953125 -55.984375 33.242188 -55.378906 30.796875 -54.171875 C 28.359375 -52.972656 26.34375 -51.171875 24.75 -48.765625 C 23.863281 -47.722656 23.238281 -46.640625 22.875 -45.515625 C 22.519531 -44.398438 22.265625 -43.40625 22.109375 -42.53125 Z M 22.109375 -42.53125 "/></g></g></g><g clip-path="url(#e60fc2ad7f)"><path fill="#eb7421" d="M 536.898438 318.679688 C 536.898438 331.949219 526.136719 342.710938 512.863281 342.710938 L 488.832031 342.710938 C 488.832031 329.441406 499.59375 318.679688 512.863281 318.679688 Z M 536.898438 318.679688 " fill-opacity="1" fillRule="nonzero"/></g></svg>